# This file uses centimeters as units for non-parametric coordinates.

mtllib Table for room.mtl
g default
v 1.612859 0.167776 -11.481818
v 2.005758 0.167776 -11.481818
v 1.612859 2.702249 -11.481818
v 2.005758 2.702249 -11.481818
v 1.612859 2.702249 -11.874717
v 2.005758 2.702249 -11.874717
v 1.612859 0.167776 -11.874717
v 2.005758 0.167776 -11.874717
v 1.612859 2.122777 -11.481818
v 1.612859 2.122777 -11.874717
v 2.005758 2.122777 -11.874717
v 2.005758 2.122777 -11.481818
v 1.612859 1.914534 -11.481818
v 1.612859 1.914534 -11.874717
v 2.005758 1.914534 -11.874717
v 2.005758 1.914534 -11.481818
v 1.645463 1.914534 -11.514422
v 1.645463 1.914534 -11.842112
v 1.645463 2.122777 -11.514422
v 1.645463 2.122777 -11.842112
v 1.973154 2.122777 -11.842112
v 1.973154 1.914534 -11.842112
v 1.973154 1.914534 -11.514422
v 1.973154 2.122777 -11.514422
v 1.612859 0.167776 -8.575126
v 2.005758 0.167776 -8.575126
v 1.612859 2.702249 -8.575126
v 2.005758 2.702249 -8.575126
v 1.612859 2.702249 -8.968024
v 2.005758 2.702249 -8.968024
v 1.612859 0.167776 -8.968024
v 2.005758 0.167776 -8.968024
v 1.612859 2.122777 -8.575126
v 1.612859 2.122777 -8.968024
v 2.005758 2.122777 -8.968024
v 2.005758 2.122777 -8.575126
v 1.612859 1.914534 -8.575126
v 1.612859 1.914534 -8.968024
v 2.005758 1.914534 -8.968024
v 2.005758 1.914534 -8.575126
v 1.645463 1.914534 -8.607730
v 1.645463 1.914534 -8.935420
v 1.645463 2.122777 -8.607730
v 1.645463 2.122777 -8.935420
v 1.973154 2.122777 -8.935420
v 1.973154 1.914534 -8.935420
v 1.973154 1.914534 -8.607730
v 1.973154 2.122777 -8.607730
v 10.466485 0.167776 -8.575126
v 10.859384 0.167776 -8.575126
v 10.466485 2.702249 -8.575126
v 10.859384 2.702249 -8.575126
v 10.466485 2.702249 -8.968024
v 10.859384 2.702249 -8.968024
v 10.466485 0.167776 -8.968024
v 10.859384 0.167776 -8.968024
v 10.466485 2.122777 -8.575126
v 10.466485 2.122777 -8.968024
v 10.859384 2.122777 -8.968024
v 10.859384 2.122777 -8.575126
v 10.466485 1.914534 -8.575126
v 10.466485 1.914534 -8.968024
v 10.859384 1.914534 -8.968024
v 10.859384 1.914534 -8.575126
v 10.499089 1.914534 -8.607730
v 10.499089 1.914534 -8.935420
v 10.499089 2.122777 -8.607730
v 10.499089 2.122777 -8.935420
v 10.826780 2.122777 -8.935420
v 10.826780 1.914534 -8.935420
v 10.826780 1.914534 -8.607730
v 10.826780 2.122777 -8.607730
v 10.466485 0.167776 -11.481818
v 10.859384 0.167776 -11.481818
v 10.466485 2.702249 -11.481818
v 10.859384 2.702249 -11.481818
v 10.466485 2.702249 -11.874717
v 10.859384 2.702249 -11.874717
v 10.466485 0.167776 -11.874717
v 10.859384 0.167776 -11.874717
v 10.466485 2.122777 -11.481818
v 10.466485 2.122777 -11.874717
v 10.859384 2.122777 -11.874717
v 10.859384 2.122777 -11.481818
v 10.466485 1.914534 -11.481818
v 10.466485 1.914534 -11.874717
v 10.859384 1.914534 -11.874717
v 10.859384 1.914534 -11.481818
v 10.499089 1.914534 -11.514422
v 10.499089 1.914534 -11.842112
v 10.499089 2.122777 -11.514422
v 10.499089 2.122777 -11.842112
v 10.826780 2.122777 -11.842112
v 10.826780 1.914534 -11.842112
v 10.826780 1.914534 -11.514422
v 10.826780 2.122777 -11.514422
v 1.517448 2.484699 -8.545022
v 10.961776 2.484699 -8.545022
v 1.517448 2.871904 -8.545022
v 10.961776 2.871904 -8.545022
v 1.517448 2.871904 -11.941060
v 10.961776 2.871904 -11.941060
v 1.517448 2.484699 -11.941060
v 10.961776 2.484699 -11.941060
vt 0.375000 0.000000
vt 0.625000 0.000000
vt 0.375000 0.250000
vt 0.625000 0.250000
vt 0.375000 0.500000
vt 0.625000 0.500000
vt 0.375000 0.750000
vt 0.625000 0.750000
vt 0.375000 1.000000
vt 0.625000 1.000000
vt 0.875000 0.000000
vt 0.875000 0.250000
vt 0.125000 0.000000
vt 0.125000 0.250000
vt 0.375000 0.192841
vt 0.125000 0.192841
vt 0.375000 0.557159
vt 0.625000 0.557159
vt 0.875000 0.192841
vt 0.625000 0.192841
vt 0.375000 0.172300
vt 0.125000 0.172300
vt 0.375000 0.577700
vt 0.625000 0.577700
vt 0.875000 0.172300
vt 0.625000 0.172300
vt 0.125000 0.172300
vt 0.375000 0.172300
vt 0.375000 0.192841
vt 0.125000 0.192841
vt 0.375000 0.557159
vt 0.625000 0.557159
vt 0.625000 0.577700
vt 0.375000 0.577700
vt 0.625000 0.172300
vt 0.875000 0.172300
vt 0.875000 0.192841
vt 0.625000 0.192841
vt 0.375000 0.000000
vt 0.625000 0.000000
vt 0.625000 0.172300
vt 0.375000 0.172300
vt 0.375000 0.250000
vt 0.625000 0.250000
vt 0.625000 0.500000
vt 0.375000 0.500000
vt 0.375000 0.577700
vt 0.625000 0.577700
vt 0.625000 0.750000
vt 0.375000 0.750000
vt 0.625000 1.000000
vt 0.375000 1.000000
vt 0.875000 0.000000
vt 0.875000 0.172300
vt 0.125000 0.000000
vt 0.125000 0.172300
vt 0.125000 0.192841
vt 0.375000 0.192841
vt 0.125000 0.250000
vt 0.625000 0.557159
vt 0.375000 0.557159
vt 0.625000 0.192841
vt 0.875000 0.192841
vt 0.875000 0.250000
vt 0.125000 0.172300
vt 0.375000 0.172300
vt 0.375000 0.192841
vt 0.125000 0.192841
vt 0.375000 0.557159
vt 0.625000 0.557159
vt 0.625000 0.577700
vt 0.375000 0.577700
vt 0.625000 0.172300
vt 0.875000 0.172300
vt 0.875000 0.192841
vt 0.625000 0.192841
vt 0.375000 0.000000
vt 0.625000 0.000000
vt 0.625000 0.172300
vt 0.375000 0.172300
vt 0.375000 0.250000
vt 0.625000 0.250000
vt 0.625000 0.500000
vt 0.375000 0.500000
vt 0.375000 0.577700
vt 0.625000 0.577700
vt 0.625000 0.750000
vt 0.375000 0.750000
vt 0.625000 1.000000
vt 0.375000 1.000000
vt 0.875000 0.000000
vt 0.875000 0.172300
vt 0.125000 0.000000
vt 0.125000 0.172300
vt 0.125000 0.192841
vt 0.375000 0.192841
vt 0.125000 0.250000
vt 0.625000 0.557159
vt 0.375000 0.557159
vt 0.625000 0.192841
vt 0.875000 0.192841
vt 0.875000 0.250000
vt 0.125000 0.172300
vt 0.375000 0.172300
vt 0.375000 0.192841
vt 0.125000 0.192841
vt 0.375000 0.557159
vt 0.625000 0.557159
vt 0.625000 0.577700
vt 0.375000 0.577700
vt 0.625000 0.172300
vt 0.875000 0.172300
vt 0.875000 0.192841
vt 0.625000 0.192841
vt 0.375000 0.000000
vt 0.625000 0.000000
vt 0.625000 0.172300
vt 0.375000 0.172300
vt 0.375000 0.250000
vt 0.625000 0.250000
vt 0.625000 0.500000
vt 0.375000 0.500000
vt 0.375000 0.577700
vt 0.625000 0.577700
vt 0.625000 0.750000
vt 0.375000 0.750000
vt 0.625000 1.000000
vt 0.375000 1.000000
vt 0.875000 0.000000
vt 0.875000 0.172300
vt 0.125000 0.000000
vt 0.125000 0.172300
vt 0.125000 0.192841
vt 0.375000 0.192841
vt 0.125000 0.250000
vt 0.625000 0.557159
vt 0.375000 0.557159
vt 0.625000 0.192841
vt 0.875000 0.192841
vt 0.875000 0.250000
vt 0.125000 0.172300
vt 0.375000 0.172300
vt 0.375000 0.192841
vt 0.125000 0.192841
vt 0.375000 0.557159
vt 0.625000 0.557159
vt 0.625000 0.577700
vt 0.375000 0.577700
vt 0.625000 0.172300
vt 0.875000 0.172300
vt 0.875000 0.192841
vt 0.625000 0.192841
vt 0.375000 0.000000
vt 0.625000 0.000000
vt 0.625000 0.250000
vt 0.375000 0.250000
vt 0.625000 0.500000
vt 0.375000 0.500000
vt 0.625000 0.750000
vt 0.375000 0.750000
vt 0.625000 1.000000
vt 0.375000 1.000000
vt 0.875000 0.000000
vt 0.875000 0.250000
vt 0.125000 0.000000
vt 0.125000 0.250000
vn 0.000000 0.000000 1.000000
vn 0.000000 0.000000 1.000000
vn 0.000000 0.000000 1.000000
vn 0.000000 0.000000 1.000000
vn 0.000000 1.000000 0.000000
vn 0.000000 1.000000 0.000000
vn 0.000000 1.000000 0.000000
vn 0.000000 1.000000 0.000000
vn 0.000000 0.000000 -1.000000
vn 0.000000 0.000000 -1.000000
vn 0.000000 0.000000 -1.000000
vn 0.000000 0.000000 -1.000000
vn 0.000000 -1.000000 0.000000
vn 0.000000 -1.000000 0.000000
vn 0.000000 -1.000000 0.000000
vn 0.000000 -1.000000 0.000000
vn 1.000000 0.000000 0.000000
vn 1.000000 0.000000 0.000000
vn 1.000000 0.000000 0.000000
vn 1.000000 0.000000 0.000000
vn -1.000000 0.000000 0.000000
vn -1.000000 0.000000 0.000000
vn -1.000000 0.000000 0.000000
vn -1.000000 0.000000 0.000000
vn -1.000000 0.000000 0.000000
vn -1.000000 0.000000 0.000000
vn -1.000000 0.000000 0.000000
vn -1.000000 0.000000 0.000000
vn 0.000000 0.000000 -1.000000
vn 0.000000 0.000000 -1.000000
vn 0.000000 0.000000 -1.000000
vn 0.000000 0.000000 -1.000000
vn 1.000000 0.000000 0.000000
vn 1.000000 0.000000 0.000000
vn 1.000000 0.000000 0.000000
vn 1.000000 0.000000 0.000000
vn 0.000000 0.000000 1.000000
vn 0.000000 0.000000 1.000000
vn 0.000000 0.000000 1.000000
vn 0.000000 0.000000 1.000000
vn -1.000000 0.000000 0.000000
vn -1.000000 0.000000 0.000000
vn -1.000000 0.000000 0.000000
vn -1.000000 0.000000 0.000000
vn 0.000000 0.000000 -1.000000
vn 0.000000 0.000000 -1.000000
vn 0.000000 0.000000 -1.000000
vn 0.000000 0.000000 -1.000000
vn 1.000000 0.000000 0.000000
vn 1.000000 0.000000 0.000000
vn 1.000000 0.000000 0.000000
vn 1.000000 0.000000 0.000000
vn 0.000000 0.000000 1.000000
vn 0.000000 0.000000 1.000000
vn 0.000000 0.000000 1.000000
vn 0.000000 0.000000 1.000000
vn 0.000000 1.000000 0.000001
vn 0.000000 1.000000 -0.000001
vn 0.000000 1.000000 -0.000001
vn 0.000000 1.000000 0.000001
vn 0.000000 -1.000000 0.000000
vn 0.000000 -1.000000 0.000000
vn 0.000000 -1.000000 0.000000
vn 0.000000 -1.000000 0.000000
vn 0.000000 -1.000000 0.000000
vn 0.000000 -1.000000 0.000000
vn 0.000000 1.000000 0.000001
vn 0.000000 1.000000 0.000001
vn 0.000000 1.000000 -0.000001
vn 0.000000 1.000000 -0.000001
vn 0.000000 -1.000000 0.000000
vn 0.000000 -1.000000 0.000000
vn 0.000000 0.000000 1.000000
vn 0.000000 0.000000 1.000000
vn 0.000000 0.000000 1.000000
vn 0.000000 0.000000 1.000000
vn 0.000000 1.000000 0.000000
vn 0.000000 1.000000 0.000000
vn 0.000000 1.000000 0.000000
vn 0.000000 1.000000 0.000000
vn 0.000000 0.000000 -1.000000
vn 0.000000 0.000000 -1.000000
vn 0.000000 0.000000 -1.000000
vn 0.000000 0.000000 -1.000000
vn 0.000000 -1.000000 0.000000
vn 0.000000 -1.000000 0.000000
vn 0.000000 -1.000000 0.000000
vn 0.000000 -1.000000 0.000000
vn 1.000000 0.000000 0.000000
vn 1.000000 0.000000 0.000000
vn 1.000000 0.000000 0.000000
vn 1.000000 0.000000 0.000000
vn -1.000000 0.000000 0.000000
vn -1.000000 0.000000 0.000000
vn -1.000000 0.000000 0.000000
vn -1.000000 0.000000 0.000000
vn -1.000000 0.000000 0.000000
vn -1.000000 0.000000 0.000000
vn -1.000000 0.000000 0.000000
vn -1.000000 0.000000 0.000000
vn 0.000000 0.000000 -1.000000
vn 0.000000 0.000000 -1.000000
vn 0.000000 0.000000 -1.000000
vn 0.000000 0.000000 -1.000000
vn 1.000000 0.000000 0.000000
vn 1.000000 0.000000 0.000000
vn 1.000000 0.000000 0.000000
vn 1.000000 0.000000 0.000000
vn 0.000000 0.000000 1.000000
vn 0.000000 0.000000 1.000000
vn 0.000000 0.000000 1.000000
vn 0.000000 0.000000 1.000000
vn -1.000000 0.000000 0.000000
vn -1.000000 0.000000 0.000000
vn -1.000000 0.000000 0.000000
vn -1.000000 0.000000 0.000000
vn 0.000000 0.000000 -1.000000
vn 0.000000 0.000000 -1.000000
vn 0.000000 0.000000 -1.000000
vn 0.000000 0.000000 -1.000000
vn 1.000000 0.000000 0.000000
vn 1.000000 0.000000 0.000000
vn 1.000000 0.000000 0.000000
vn 1.000000 0.000000 0.000000
vn 0.000000 0.000000 1.000000
vn 0.000000 0.000000 1.000000
vn 0.000000 0.000000 1.000000
vn 0.000000 0.000000 1.000000
vn 0.000000 1.000000 0.000001
vn 0.000000 1.000000 -0.000001
vn 0.000000 1.000000 -0.000001
vn 0.000000 1.000000 0.000001
vn 0.000000 -1.000000 0.000000
vn 0.000000 -1.000000 0.000000
vn 0.000000 -1.000000 0.000000
vn 0.000000 -1.000000 0.000000
vn 0.000000 -1.000000 0.000000
vn 0.000000 -1.000000 0.000000
vn 0.000000 1.000000 0.000001
vn 0.000000 1.000000 0.000001
vn 0.000000 1.000000 -0.000001
vn 0.000000 1.000000 -0.000001
vn 0.000000 -1.000000 0.000000
vn 0.000000 -1.000000 0.000000
vn 0.000000 0.000000 1.000000
vn 0.000000 0.000000 1.000000
vn 0.000000 0.000000 1.000000
vn 0.000000 0.000000 1.000000
vn 0.000000 1.000000 0.000000
vn 0.000000 1.000000 0.000000
vn 0.000000 1.000000 0.000000
vn 0.000000 1.000000 0.000000
vn 0.000000 0.000000 -1.000000
vn 0.000000 0.000000 -1.000000
vn 0.000000 0.000000 -1.000000
vn 0.000000 0.000000 -1.000000
vn 0.000000 -1.000000 0.000000
vn 0.000000 -1.000000 0.000000
vn 0.000000 -1.000000 0.000000
vn 0.000000 -1.000000 0.000000
vn 1.000000 0.000000 0.000000
vn 1.000000 0.000000 0.000000
vn 1.000000 0.000000 0.000000
vn 1.000000 0.000000 0.000000
vn -1.000000 0.000000 0.000000
vn -1.000000 0.000000 0.000000
vn -1.000000 0.000000 0.000000
vn -1.000000 0.000000 0.000000
vn -1.000000 0.000000 0.000000
vn -1.000000 0.000000 0.000000
vn -1.000000 0.000000 0.000000
vn -1.000000 0.000000 0.000000
vn 0.000000 0.000000 -1.000000
vn 0.000000 0.000000 -1.000000
vn 0.000000 0.000000 -1.000000
vn 0.000000 0.000000 -1.000000
vn 1.000000 0.000000 0.000000
vn 1.000000 0.000000 0.000000
vn 1.000000 0.000000 0.000000
vn 1.000000 0.000000 0.000000
vn 0.000000 0.000000 1.000000
vn 0.000000 0.000000 1.000000
vn 0.000000 0.000000 1.000000
vn 0.000000 0.000000 1.000000
vn -1.000000 0.000000 0.000000
vn -1.000000 0.000000 0.000000
vn -1.000000 0.000000 0.000000
vn -1.000000 0.000000 0.000000
vn 0.000000 0.000000 -1.000000
vn 0.000000 0.000000 -1.000000
vn 0.000000 0.000000 -1.000000
vn 0.000000 0.000000 -1.000000
vn 1.000000 0.000000 0.000000
vn 1.000000 0.000000 0.000000
vn 1.000000 0.000000 0.000000
vn 1.000000 0.000000 0.000000
vn 0.000000 0.000000 1.000000
vn 0.000000 0.000000 1.000000
vn 0.000000 0.000000 1.000000
vn 0.000000 0.000000 1.000000
vn 0.000000 1.000000 0.000001
vn 0.000000 1.000000 -0.000001
vn 0.000000 1.000000 -0.000001
vn 0.000000 1.000000 0.000001
vn 0.000000 -1.000000 0.000000
vn 0.000000 -1.000000 0.000000
vn 0.000000 -1.000000 0.000000
vn 0.000000 -1.000000 0.000000
vn 0.000000 -1.000000 0.000000
vn 0.000000 -1.000000 0.000000
vn 0.000000 1.000000 0.000001
vn 0.000000 1.000000 0.000001
vn 0.000000 1.000000 -0.000001
vn 0.000000 1.000000 -0.000001
vn 0.000000 -1.000000 0.000000
vn 0.000000 -1.000000 0.000000
vn 0.000000 0.000000 1.000000
vn 0.000000 0.000000 1.000000
vn 0.000000 0.000000 1.000000
vn 0.000000 0.000000 1.000000
vn 0.000000 1.000000 0.000000
vn 0.000000 1.000000 0.000000
vn 0.000000 1.000000 0.000000
vn 0.000000 1.000000 0.000000
vn 0.000000 0.000000 -1.000000
vn 0.000000 0.000000 -1.000000
vn 0.000000 0.000000 -1.000000
vn 0.000000 0.000000 -1.000000
vn 0.000000 -1.000000 0.000000
vn 0.000000 -1.000000 0.000000
vn 0.000000 -1.000000 0.000000
vn 0.000000 -1.000000 0.000000
vn 1.000000 0.000000 0.000000
vn 1.000000 0.000000 0.000000
vn 1.000000 0.000000 0.000000
vn 1.000000 0.000000 0.000000
vn -1.000000 0.000000 0.000000
vn -1.000000 0.000000 0.000000
vn -1.000000 0.000000 0.000000
vn -1.000000 0.000000 0.000000
vn -1.000000 0.000000 0.000000
vn -1.000000 0.000000 0.000000
vn -1.000000 0.000000 0.000000
vn -1.000000 0.000000 0.000000
vn 0.000000 0.000000 -1.000000
vn 0.000000 0.000000 -1.000000
vn 0.000000 0.000000 -1.000000
vn 0.000000 0.000000 -1.000000
vn 1.000000 0.000000 0.000000
vn 1.000000 0.000000 0.000000
vn 1.000000 0.000000 0.000000
vn 1.000000 0.000000 0.000000
vn 0.000000 0.000000 1.000000
vn 0.000000 0.000000 1.000000
vn 0.000000 0.000000 1.000000
vn 0.000000 0.000000 1.000000
vn -1.000000 0.000000 0.000000
vn -1.000000 0.000000 0.000000
vn -1.000000 0.000000 0.000000
vn -1.000000 0.000000 0.000000
vn 0.000000 0.000000 -1.000000
vn 0.000000 0.000000 -1.000000
vn 0.000000 0.000000 -1.000000
vn 0.000000 0.000000 -1.000000
vn 1.000000 0.000000 0.000000
vn 1.000000 0.000000 0.000000
vn 1.000000 0.000000 0.000000
vn 1.000000 0.000000 0.000000
vn 0.000000 0.000000 1.000000
vn 0.000000 0.000000 1.000000
vn 0.000000 0.000000 1.000000
vn 0.000000 0.000000 1.000000
vn 0.000000 1.000000 0.000001
vn 0.000000 1.000000 -0.000001
vn 0.000000 1.000000 -0.000001
vn 0.000000 1.000000 0.000001
vn 0.000000 -1.000000 0.000000
vn 0.000000 -1.000000 0.000000
vn 0.000000 -1.000000 0.000000
vn 0.000000 -1.000000 0.000000
vn 0.000000 -1.000000 0.000000
vn 0.000000 -1.000000 0.000000
vn 0.000000 1.000000 0.000001
vn 0.000000 1.000000 0.000001
vn 0.000000 1.000000 -0.000001
vn 0.000000 1.000000 -0.000001
vn 0.000000 -1.000000 0.000000
vn 0.000000 -1.000000 0.000000
vn 0.000000 0.000000 1.000000
vn 0.000000 0.000000 1.000000
vn 0.000000 0.000000 1.000000
vn 0.000000 0.000000 1.000000
vn 0.000000 1.000000 0.000000
vn 0.000000 1.000000 0.000000
vn 0.000000 1.000000 0.000000
vn 0.000000 1.000000 0.000000
vn 0.000000 0.000000 -1.000000
vn 0.000000 0.000000 -1.000000
vn 0.000000 0.000000 -1.000000
vn 0.000000 0.000000 -1.000000
vn 0.000000 -1.000000 0.000000
vn 0.000000 -1.000000 0.000000
vn 0.000000 -1.000000 0.000000
vn 0.000000 -1.000000 0.000000
vn 1.000000 0.000000 0.000000
vn 1.000000 0.000000 0.000000
vn 1.000000 0.000000 0.000000
vn 1.000000 0.000000 0.000000
vn -1.000000 0.000000 0.000000
vn -1.000000 0.000000 0.000000
vn -1.000000 0.000000 0.000000
vn -1.000000 0.000000 0.000000
s off
g pCube27
usemtl initialShadingGroup
f 1/1/1 2/2/2 16/26/3 13/21/4
f 3/3/5 4/4/6 6/6/7 5/5/8
f 14/23/9 15/24/10 8/8/11 7/7/12
f 7/7/13 8/8/14 2/10/15 1/9/16
f 2/2/17 8/11/18 15/25/19 16/26/20
f 7/13/21 1/1/22 13/21/23 14/22/24
f 10/16/25 9/15/26 3/3/27 5/14/28
f 5/5/29 6/6/30 11/18/31 10/17/32
f 12/20/33 11/19/34 6/12/35 4/4/36
f 9/15/37 12/20/38 4/4/39 3/3/40
f 18/27/41 17/28/42 19/29/43 20/30/44
f 20/31/45 21/32/46 22/33/47 18/34/48
f 23/35/49 22/36/50 21/37/51 24/38/52
f 17/28/53 23/35/54 24/38/55 19/29/56
s 1
f 14/22/57 13/21/58 17/28/59 18/27/60
s 2
f 9/15/61 10/16/62 20/30/63 19/29/64
f 10/17/62 11/18/65 21/32/66 20/31/63
s 1
f 15/24/67 14/23/57 18/34/60 22/33/68
f 16/26/69 15/25/67 22/36/68 23/35/70
s 2
f 11/19/65 12/20/71 24/38/72 21/37/66
s 1
f 13/21/58 16/26/69 23/35/70 17/28/59
s 2
f 12/20/71 9/15/61 19/29/64 24/38/72
s off
f 25/39/73 26/40/74 40/41/75 37/42/76
f 27/43/77 28/44/78 30/45/79 29/46/80
f 38/47/81 39/48/82 32/49/83 31/50/84
f 31/50/85 32/49/86 26/51/87 25/52/88
f 26/40/89 32/53/90 39/54/91 40/41/92
f 31/55/93 25/39/94 37/42/95 38/56/96
f 34/57/97 33/58/98 27/43/99 29/59/100
f 29/46/101 30/45/102 35/60/103 34/61/104
f 36/62/105 35/63/106 30/64/107 28/44/108
f 33/58/109 36/62/110 28/44/111 27/43/112
f 42/65/113 41/66/114 43/67/115 44/68/116
f 44/69/117 45/70/118 46/71/119 42/72/120
f 47/73/121 46/74/122 45/75/123 48/76/124
f 41/66/125 47/73/126 48/76/127 43/67/128
s 3
f 38/56/129 37/42/130 41/66/131 42/65/132
s 4
f 33/58/133 34/57/134 44/68/135 43/67/136
f 34/61/134 35/60/137 45/70/138 44/69/135
s 3
f 39/48/139 38/47/129 42/72/132 46/71/140
f 40/41/141 39/54/139 46/74/140 47/73/142
s 4
f 35/63/137 36/62/143 48/76/144 45/75/138
s 3
f 37/42/130 40/41/141 47/73/142 41/66/131
s 4
f 36/62/143 33/58/133 43/67/136 48/76/144
s off
f 49/77/145 50/78/146 64/79/147 61/80/148
f 51/81/149 52/82/150 54/83/151 53/84/152
f 62/85/153 63/86/154 56/87/155 55/88/156
f 55/88/157 56/87/158 50/89/159 49/90/160
f 50/78/161 56/91/162 63/92/163 64/79/164
f 55/93/165 49/77/166 61/80/167 62/94/168
f 58/95/169 57/96/170 51/81/171 53/97/172
f 53/84/173 54/83/174 59/98/175 58/99/176
f 60/100/177 59/101/178 54/102/179 52/82/180
f 57/96/181 60/100/182 52/82/183 51/81/184
f 66/103/185 65/104/186 67/105/187 68/106/188
f 68/107/189 69/108/190 70/109/191 66/110/192
f 71/111/193 70/112/194 69/113/195 72/114/196
f 65/104/197 71/111/198 72/114/199 67/105/200
s 5
f 62/94/201 61/80/202 65/104/203 66/103/204
s 6
f 57/96/205 58/95/206 68/106/207 67/105/208
f 58/99/206 59/98/209 69/108/210 68/107/207
s 5
f 63/86/211 62/85/201 66/110/204 70/109/212
f 64/79/213 63/92/211 70/112/212 71/111/214
s 6
f 59/101/209 60/100/215 72/114/216 69/113/210
s 5
f 61/80/202 64/79/213 71/111/214 65/104/203
s 6
f 60/100/215 57/96/205 67/105/208 72/114/216
s off
f 73/115/217 74/116/218 88/117/219 85/118/220
f 75/119/221 76/120/222 78/121/223 77/122/224
f 86/123/225 87/124/226 80/125/227 79/126/228
f 79/126/229 80/125/230 74/127/231 73/128/232
f 74/116/233 80/129/234 87/130/235 88/117/236
f 79/131/237 73/115/238 85/118/239 86/132/240
f 82/133/241 81/134/242 75/119/243 77/135/244
f 77/122/245 78/121/246 83/136/247 82/137/248
f 84/138/249 83/139/250 78/140/251 76/120/252
f 81/134/253 84/138/254 76/120/255 75/119/256
f 90/141/257 89/142/258 91/143/259 92/144/260
f 92/145/261 93/146/262 94/147/263 90/148/264
f 95/149/265 94/150/266 93/151/267 96/152/268
f 89/142/269 95/149/270 96/152/271 91/143/272
s 7
f 86/132/273 85/118/274 89/142/275 90/141/276
s 8
f 81/134/277 82/133/278 92/144/279 91/143/280
f 82/137/278 83/136/281 93/146/282 92/145/279
s 7
f 87/124/283 86/123/273 90/148/276 94/147/284
f 88/117/285 87/130/283 94/150/284 95/149/286
s 8
f 83/139/281 84/138/287 96/152/288 93/151/282
s 7
f 85/118/274 88/117/285 95/149/286 89/142/275
s 8
f 84/138/287 81/134/277 91/143/280 96/152/288
s off
f 97/153/289 98/154/290 100/155/291 99/156/292
f 99/156/293 100/155/294 102/157/295 101/158/296
f 101/158/297 102/157/298 104/159/299 103/160/300
f 103/160/301 104/159/302 98/161/303 97/162/304
f 98/154/305 104/163/306 102/164/307 100/155/308
f 103/165/309 97/153/310 99/156/311 101/166/312
